<svg version="1.0" xmlns="http://www.w3.org/2000/svg"
 width="479.000000pt" height="479.000000pt" viewBox="0 0 479.000000 479.000000"
 preserveAspectRatio="xMidYMid meet">
<g transform="translate(0.000000,479.000000) scale(0.100000,-0.100000)"
fill="#000000" stroke-width="100">
<path d="M2015 4741 c-11 -5 -33 -23 -50 -41 -29 -30 -30 -36 -33 -135 l-4
-104 -361 -3 -362 -3 -57 -27 c-73 -34 -142 -103 -176 -176 l-27 -57 0 -1705
0 -1705 27 -57 c35 -75 95 -138 165 -174 l58 -29 218 -3 217 -3 0 -187 c0
-158 3 -192 18 -222 54 -109 213 -107 262 3 17 36 20 66 20 225 l0 182 145 0
145 0 0 -182 c0 -159 3 -189 20 -225 50 -112 210 -112 260 0 17 36 20 66 20
225 l0 182 145 0 145 0 0 -182 c0 -159 3 -189 20 -225 49 -110 208 -112 262
-3 15 30 18 64 18 222 l0 187 218 3 217 3 58 29 c70 36 130 99 165 174 l27 57
0 1705 0 1705 -27 57 c-34 73 -103 142 -176 176 l-57 27 -362 3 -361 3 -4 104
-3 105 -38 37 c-35 36 -41 38 -101 38 -55 0 -68 -4 -91 -25 -45 -42 -55 -72
-55 -170 l0 -90 -150 0 -150 0 0 90 c0 98 -10 128 -54 169 -28 26 -113 39
-151 22z m1473 -593 c9 -9 12 -392 12 -1660 l0 -1648 -23 -15 c-21 -13 -67
-15 -318 -13 l-294 3 -5 370 -5 371 -25 49 c-29 55 -94 106 -163 127 -29 9
-120 13 -297 13 -177 0 -268 -4 -297 -13 -69 -21 -134 -72 -163 -127 l-25 -49
-5 -371 -5 -370 -294 -3 c-251 -2 -297 0 -318 13 l-23 15 0 1648 c0 1268 3
1651 12 1660 17 17 2219 17 2236 0z m-864 -2612 c31 -13 35 -19 41 -68 3 -29
5 -188 3 -353 l-3 -300 -295 0 -295 0 -3 300 c-2 165 0 324 3 353 10 78 19 81
293 82 170 0 231 -3 256 -14z" stroke="white" fill="white"/>
<path d="M2582 3700 c-164 -23 -300 -88 -397 -192 -36 -38 -78 -94 -93 -124
-19 -40 -30 -53 -42 -48 -30 14 -137 16 -159 4 -13 -6 -29 -27 -37 -46 -13
-30 -13 -42 2 -97 10 -38 15 -89 12 -132 -3 -62 -8 -79 -46 -142 -74 -123 -86
-163 -86 -288 0 -92 5 -121 25 -175 133 -351 569 -504 926 -324 251 126 366
381 305 677 -23 107 -83 245 -128 290 -43 43 -91 38 -154 -18 -49 -44 -94 -65
-108 -50 -4 3 -9 42 -10 84 -7 134 43 275 132 377 57 66 69 90 62 128 -14 72
-73 94 -204 76z m-122 -245 c0 -2 -9 -27 -20 -55 -25 -63 -50 -204 -50 -279 0
-124 51 -228 130 -269 37 -19 55 -22 102 -18 31 3 75 13 98 22 24 10 45 13 50
8 23 -23 42 -140 38 -229 -5 -109 -27 -163 -94 -236 -89 -95 -202 -141 -344
-141 -145 0 -257 47 -348 147 -64 69 -92 141 -92 233 0 72 12 105 74 206 20
33 41 85 48 116 l11 57 47 -5 c38 -3 51 0 74 19 23 20 29 36 37 99 15 124 42
182 115 252 52 48 124 91 124 73z" stroke="white" fill="white"/>
</g>
</svg>
