<svg version="1.0" xmlns="http://www.w3.org/2000/svg"
 width="225.000000pt" height="225.000000pt" viewBox="0 0 225.000000 225.000000"
 preserveAspectRatio="xMidYMid meet">
<g transform="translate(0.000000,225.000000) scale(0.100000,-0.100000)"
fill="#000000" >
<path d="M1641 2235 c-125 -28 -232 -118 -292 -243 -19 -40 -42 -116 -59 -202
-29 -143 -44 -188 -54 -160 -2 8 -14 47 -26 85 -43 136 -106 242 -200 335
-131 131 -268 190 -446 190 -147 0 -320 -59 -408 -140 -220 -203 -201 -555 39
-714 69 -46 137 -70 278 -97 115 -21 175 -43 147 -52 -8 -3 -46 -15 -85 -27
-38 -13 -110 -43 -160 -68 -121 -62 -242 -181 -298 -294 -75 -153 -87 -330
-31 -497 63 -190 177 -295 366 -338 130 -29 275 6 374 91 93 79 138 175 178
375 25 123 40 169 50 141 2 -8 14 -46 26 -85 103 -326 347 -524 646 -525 94 0
209 27 301 69 263 124 345 490 158 708 -74 87 -181 138 -358 172 -116 23 -182
45 -157 54 8 3 47 15 85 27 239 75 423 242 496 450 19 55 23 85 23 195 0 116
-3 138 -28 210 -47 136 -98 208 -189 268 -113 74 -251 101 -376 72z m219 -217
c83 -35 134 -105 165 -225 53 -204 -52 -411 -260 -516 -46 -23 -168 -67 -186
-67 -4 0 -10 15 -13 33 -11 58 -52 131 -106 190 l-52 58 26 58 c14 33 38 117
52 186 29 147 56 208 115 259 68 58 161 67 259 24z m-1201 11 c117 -27 239
-124 300 -239 39 -74 84 -201 74 -211 -5 -3 -26 -12 -48 -19 -58 -18 -123 -57
-177 -108 l-48 -45 -61 28 c-33 14 -114 37 -179 50 -66 14 -142 34 -170 46
-106 46 -164 155 -140 263 29 133 110 202 275 239 37 9 130 7 174 -4z m575
-674 c90 -43 140 -125 141 -230 0 -104 -49 -185 -141 -231 -54 -26 -165 -26
-219 1 -158 78 -193 285 -69 409 24 25 63 51 86 60 55 20 151 16 202 -9z
m-550 -347 c11 -59 52 -132 106 -191 l52 -58 -26 -58 c-14 -33 -38 -117 -52
-187 -35 -176 -71 -241 -159 -287 -80 -41 -216 -17 -288 51 -67 64 -113 204
-104 320 14 188 150 338 377 418 84 30 87 30 94 -8z m868 -193 c48 -22 88 -33
258 -66 148 -30 233 -119 233 -244 0 -168 -125 -276 -335 -292 -213 -16 -395
132 -478 391 -12 37 -21 68 -19 70 2 1 29 10 60 19 64 19 129 60 178 111 19
20 38 36 42 36 4 0 31 -11 61 -25z" stroke="white" fill="white"/>
</g>
</svg>
