<?xml version="1.0" standalone="no"?>
<!DOCTYPE svg PUBLIC "-//W3C//DTD SVG 20010904//EN"
 "http://www.w3.org/TR/2001/REC-SVG-20010904/DTD/svg10.dtd">
<svg version="1.0" xmlns="http://www.w3.org/2000/svg"
 width="452.000000pt" height="452.000000pt" viewBox="0 0 452.000000 452.000000"
 preserveAspectRatio="xMidYMid meet">
<metadata>
Created by potrace 1.16, written by Peter Selinger 2001-2019
</metadata>
<g transform="translate(0.000000,452.000000) scale(0.100000,-0.100000)"
fill="#000000" stroke="none">
<path d="M3340 4218 c0 -72 -27 -220 -50 -282 -27 -72 -95 -148 -161 -181 -60
-31 -135 -49 -304 -75 -174 -26 -208 -34 -290 -65 -194 -73 -308 -226 -348
-467 l-13 -73 -954 -5 c-874 -5 -958 -6 -993 -22 -65 -29 -125 -79 -161 -132
-69 -102 -67 -55 -64 -1132 l3 -969 26 -55 c32 -69 76 -119 137 -159 102 -65
-31 -62 2118 -59 l1949 3 57 23 c80 32 150 99 190 180 l33 67 3 969 c3 1078 6
1030 -64 1133 -20 28 -59 68 -87 87 -102 70 -40 66 -1074 66 l-935 0 7 48 c17
115 72 226 138 276 68 52 147 76 354 106 183 27 253 45 343 88 189 89 296 284
316 574 l7 98 -92 0 -91 0 0 -42z m887 -1339 c40 -15 73 -48 94 -94 18 -38 19
-87 19 -970 0 -587 -4 -943 -10 -966 -14 -50 -72 -105 -125 -118 -62 -15
-3833 -15 -3889 0 -55 15 -93 46 -116 94 -20 40 -20 62 -20 978 0 1015 -2 976
53 1036 49 53 -64 50 2024 51 1352 0 1950 -3 1970 -11z"/>
<path d="M450 2350 l0 -180 180 0 180 0 0 180 0 180 -180 0 -180 0 0 -180z"/>
<path d="M994 2517 c-2 -7 -3 -87 -2 -177 l3 -165 183 -3 182 -2 0 180 0 180
-180 0 c-138 0 -182 -3 -186 -13z"/>
<path d="M1540 2350 l0 -180 180 0 180 0 0 180 0 180 -180 0 -180 0 0 -180z"/>
<path d="M2080 2350 l0 -180 180 0 180 0 0 180 0 180 -180 0 -180 0 0 -180z"/>
<path d="M2620 2350 l0 -180 180 0 180 0 0 180 0 180 -180 0 -180 0 0 -180z"/>
<path d="M3160 2350 l0 -180 183 2 182 3 0 175 0 175 -182 3 -183 2 0 -180z"/>
<path d="M3710 2350 l0 -180 180 0 180 0 0 180 0 180 -180 0 -180 0 0 -180z"/>
<path d="M450 1810 l0 -180 315 0 315 0 0 180 0 180 -315 0 -315 0 0 -180z"/>
<path d="M1270 1810 l0 -180 180 0 180 0 0 180 0 180 -180 0 -180 0 0 -180z"/>
<path d="M1810 1810 l0 -180 180 0 180 0 0 180 0 180 -180 0 -180 0 0 -180z"/>
<path d="M2350 1810 l0 -180 180 0 180 0 0 180 0 180 -180 0 -180 0 0 -180z"/>
<path d="M2890 1810 l0 -180 180 0 180 0 0 180 0 180 -180 0 -180 0 0 -180z"/>
<path d="M3440 1810 l0 -180 315 0 315 0 0 180 0 180 -315 0 -315 0 0 -180z"/>
<path d="M454 1437 c-2 -7 -3 -88 -2 -180 l3 -168 178 -2 177 -2 0 183 0 182
-175 0 c-134 0 -177 -3 -181 -13z"/>
<path d="M995 1437 c-3 -7 -4 -88 -3 -181 l3 -168 180 0 180 1 0 178 0 178
-178 3 c-139 2 -179 0 -182 -11z"/>
<path d="M1540 1268 l0 -183 720 0 720 0 0 183 0 182 -720 0 -720 0 0 -182z"/>
<path d="M3165 1437 c-3 -7 -4 -88 -3 -181 l3 -168 180 0 180 1 0 178 0 178
-178 3 c-139 2 -179 0 -182 -11z"/>
<path d="M3710 1268 l0 -183 177 2 178 2 0 178 0 178 -177 3 -178 2 0 -182z"/>
</g>
</svg>
