<svg version="1.0" xmlns="http://www.w3.org/2000/svg"
 width="677.000000pt" height="846.000000pt" viewBox="0 0 677.000000 846.000000"
 preserveAspectRatio="xMidYMid meet">
<g transform="translate(0.000000,846.000000) scale(0.100000,-0.100000)"
fill="#000000" stroke-width="400">
<path d="M195 8441 c-72 -18 -132 -68 -159 -133 -13 -30 -16 -80 -16 -243 0
-224 5 -253 58 -308 53 -57 96 -71 225 -75 l117 -4 0 -1822 c0 -1112 4 -1868
10 -1941 73 -889 547 -1708 1280 -2217 289 -201 607 -348 940 -436 286 -76
451 -96 775 -96 246 0 285 3 440 28 161 26 379 77 472 110 35 12 42 12 47 1 3
-8 4 -137 3 -287 l-2 -273 -95 -6 c-107 -7 -152 -23 -199 -71 -57 -58 -61 -78
-61 -314 0 -142 4 -222 12 -241 6 -15 30 -47 52 -71 l40 -42 1268 0 1267 0 36
31 c64 56 65 63 65 324 0 256 -2 265 -57 316 -52 49 -91 63 -195 67 l-97 4 -4
1852 c-3 1698 -4 1860 -20 1966 -82 539 -278 1010 -586 1410 -298 389 -643
673 -1076 888 -171 85 -466 192 -590 216 -17 3 -70 14 -119 25 -186 43 -318
55 -601 55 -204 0 -301 -4 -395 -17 -136 -19 -397 -77 -487 -108 -31 -10 -62
-19 -70 -19 -11 0 -13 61 -13 335 l0 335 54 0 c74 0 149 26 191 67 61 59 65
81 65 320 0 235 -2 246 -64 311 -67 72 31 67 -1291 68 -655 1 -1203 -1 -1220
-5z m2265 -376 l0 -65 -1065 0 -1065 0 0 65 0 65 1065 0 1065 0 0 -65z m-320
-788 l0 -403 -57 -28 c-514 -249 -994 -710 -1284 -1230 -30 -53 -57 -96 -61
-96 -9 0 -11 2122 -2 2145 5 13 83 15 705 15 l699 0 0 -403z m1475 -438 c178
-15 313 -36 459 -73 667 -168 1251 -590 1615 -1168 240 -382 366 -760 411
-1233 37 -401 -38 -854 -210 -1260 -253 -600 -751 -1112 -1345 -1383 -369
-168 -714 -243 -1120 -244 -274 -1 -503 31 -766 108 -307 89 -636 259 -904
467 -146 114 -398 377 -505 527 -104 148 -162 243 -235 389 -303 606 -363
1329 -163 1974 136 441 371 825 699 1142 255 246 501 410 827 550 378 163 838
239 1237 204z m2490 -6087 c-3 -9 -154 -12 -705 -12 l-700 0 0 353 0 353 107
54 c136 69 384 234 516 343 305 251 571 577 759 930 l23 42 3 -1025 c1 -564 0
-1031 -3 -1038z m365 -397 l0 -65 -1065 0 -1065 0 0 65 0 65 1065 0 1065 0 0
-65z" stroke="white" fill="white"/>
<path d="M3255 5220 c-655 -118 -1050 -757 -853 -1380 196 -618 891 -922 1474
-646 289 137 494 385 581 701 25 90 28 116 28 265 0 142 -4 178 -24 255 -102
386 -392 681 -769 781 -78 21 -126 27 -242 29 -80 2 -167 0 -195 -5z m365
-331 c131 -36 260 -114 355 -216 280 -301 266 -773 -31 -1054 -107 -100 -219
-162 -356 -194 -81 -19 -255 -19 -336 0 -244 58 -440 229 -535 465 -71 180
-63 409 21 591 102 220 328 390 572 429 79 13 224 3 310 -21z" stroke="white" fill="white"/>
</g>
</svg>
