<svg version="1.0" xmlns="http://www.w3.org/2000/svg"
 width="501.000000pt" height="482.000000pt" viewBox="0 0 501.000000 482.000000"
 preserveAspectRatio="xMidYMid meet">

<g transform="translate(0.000000,482.000000) scale(0.100000,-0.100000)"
fill="#000000" stroke-width="80">
<path d="M3404 4676 c-24 -20 -28 -32 -32 -89 l-4 -67 -908 -2 c-874 -3 -909
-4 -929 -22 -48 -44 -31 -134 30 -155 23 -8 296 -11 920 -11 l889 0 0 -90 0
-90 -1475 0 -1475 0 0 59 c0 49 4 65 25 90 l26 30 209 3 c203 3 209 4 233 26
32 30 41 67 26 104 -22 52 -48 58 -268 58 -177 0 -207 -2 -255 -20 -60 -23
-133 -92 -163 -156 -17 -37 -18 -133 -21 -1999 -1 -1078 0 -1975 3 -1994 4
-18 17 -44 30 -57 l24 -24 2161 0 2161 0 24 24 c13 13 26 39 30 57 3 19 4 916
3 1994 -3 1866 -4 1962 -21 1999 -30 64 -103 133 -163 156 -50 18 -78 20 -304
20 l-250 0 0 45 c0 55 -21 110 -48 124 -41 22 -88 13 -116 -20 -22 -25 -26
-41 -26 -90 l0 -59 -89 0 -89 0 -4 66 c-4 58 -8 70 -32 90 -17 15 -40 24 -61
24 -21 0 -44 -9 -61 -24z m336 -436 l0 -90 -90 0 -90 0 0 90 0 90 90 0 90 0 0
-90z m714 59 c22 -25 26 -41 26 -90 l0 -59 -275 0 -275 0 0 90 0 90 249 0 249
0 26 -31z m-1084 -560 c0 -207 -1 -221 -17 -213 -98 42 -164 58 -269 62 -142
5 -236 -18 -361 -91 -110 -63 -185 -87 -273 -87 -88 0 -163 24 -273 87 -128
74 -220 97 -367 90 -135 -5 -192 -23 -321 -97 -97 -56 -176 -80 -264 -80 -80
0 -147 21 -259 80 -50 27 -120 56 -156 66 -84 23 -254 23 -325 0 -27 -9 -53
-16 -57 -16 -5 0 -8 95 -8 210 l0 210 1475 0 1475 0 0 -221z m370 131 l0 -90
-90 0 -90 0 0 90 0 90 90 0 90 0 0 -90z m740 -120 c0 -115 -3 -210 -7 -210 -5
0 -30 7 -58 16 -71 23 -242 23 -324 0 -36 -10 -86 -28 -113 -42 l-48 -24 0
235 0 235 275 0 275 0 0 -210z m-740 -250 l0 -90 -59 0 c-32 0 -73 3 -90 6
l-31 7 0 83 0 84 90 0 90 0 0 -90z m-1797 -105 c31 -8 114 -44 184 -81 112
-57 141 -68 225 -82 89 -14 107 -14 195 1 85 13 115 25 238 87 219 111 319
117 495 28 l85 -43 3 -262 c1 -145 1 -263 -2 -263 -2 0 -29 12 -60 26 -32 14
-84 28 -116 31 -53 5 -61 3 -84 -20 -19 -20 -26 -36 -26 -67 0 -52 22 -73 96
-95 33 -9 89 -34 127 -56 l67 -40 0 -1054 0 -1055 -1475 0 -1476 0 3 92 3 93
1357 3 1356 2 26 31 c35 41 34 83 -3 120 l-29 29 -1356 0 -1356 0 0 889 0 890
58 22 c78 30 209 37 286 15 32 -9 99 -39 149 -66 112 -60 192 -80 317 -80 142
0 208 21 396 124 83 46 184 63 282 47 74 -11 107 -24 242 -98 89 -49 174 -73
267 -75 86 -1 110 6 128 42 23 44 19 78 -14 111 -25 25 -37 29 -83 29 -81 0
-162 25 -257 80 -143 82 -184 93 -346 94 -158 1 -206 -10 -315 -71 -122 -68
-158 -83 -228 -95 -87 -15 -192 -1 -260 34 -26 13 -74 38 -107 56 -34 17 -88
38 -120 47 -79 21 -251 21 -328 1 -32 -9 -60 -16 -62 -16 -3 0 -5 121 -5 269
l0 268 58 22 c70 28 189 38 262 22 30 -6 109 -39 175 -72 238 -119 410 -116
651 12 165 88 256 106 377 74z m2480 -35 l57 -23 0 -268 c0 -148 -2 -269 -5
-269 -2 0 -30 7 -62 16 -127 34 -322 15 -435 -41 l-48 -24 0 264 0 263 75 41
c41 23 98 48 127 56 76 21 216 14 291 -15z m-683 -230 l0 -90 -90 0 -90 0 0
90 0 90 90 0 90 0 0 -90z m-2 -367 l-3 -88 -35 -3 c-19 -2 -59 -1 -87 3 l-53
6 0 85 0 84 90 0 91 0 -3 -87z m685 -142 l57 -22 0 -890 0 -889 -156 0 -156 0
-29 -29 c-37 -37 -38 -79 -3 -120 l25 -30 157 -3 157 -3 3 -93 3 -92 -276 0
-275 0 0 1044 0 1044 68 38 c109 61 163 75 272 71 68 -3 111 -10 153 -26z
m-683 -231 l0 -90 -90 0 -90 0 0 90 0 90 90 0 90 0 0 -90z m-2 -367 l3 -93
-91 0 -90 0 0 88 c0 49 3 92 7 96 4 4 43 5 88 4 l80 -3 3 -92z m2 -368 l0 -95
-90 0 -90 0 0 88 c0 49 3 92 7 95 3 4 44 7 90 7 l83 0 0 -95z m0 -370 l0 -95
-90 0 -90 0 0 88 c0 49 3 92 7 95 3 4 44 7 90 7 l83 0 0 -95z m-2 -372 l3 -93
-91 0 -90 0 0 88 c0 49 3 92 7 96 4 4 43 5 88 4 l80 -3 3 -92z m0 -370 l3 -93
-91 0 -90 0 0 88 c0 49 3 92 7 96 4 4 43 5 88 4 l80 -3 3 -92z" stroke="white" fill="white"/>
</g>
</svg>
