<svg version="1.0" xmlns="http://www.w3.org/2000/svg"
 width="752.000000pt" height="751.000000pt" viewBox="0 0 752.000000 751.000000"
 preserveAspectRatio="xMidYMid meet">
<g transform="translate(0.000000,751.000000) scale(0.100000,-0.100000)"
fill="#000000" stroke-width="350">
<path d="M3405 7329 c-128 -12 -392 -56 -510 -85 -834 -207 -1571 -706 -2059
-1393 -360 -508 -584 -1096 -648 -1701 -16 -161 -17 -590 0 -745 61 -565 274
-1161 566 -1584 28 -41 66 -97 85 -125 185 -278 568 -652 884 -863 519 -346
1009 -529 1627 -605 138 -17 652 -17 780 0 537 71 904 190 1372 445 146 80
354 225 554 388 102 83 308 291 416 420 406 485 668 1044 782 1669 37 201 50
369 50 625 0 253 -13 420 -50 625 -131 724 -474 1380 -989 1895 -597 597
-1368 958 -2210 1035 -128 12 -519 11 -650 -1z m699 -265 c529 -53 1080 -258
1521 -568 178 -124 287 -217 460 -391 282 -282 485 -569 652 -922 385 -814
417 -1760 88 -2608 -373 -963 -1189 -1704 -2185 -1984 -308 -87 -563 -121
-900 -121 -518 0 -984 105 -1430 321 -345 167 -610 352 -884 619 -564 549
-917 1290 -985 2065 -16 174 -13 473 4 642 63 600 293 1180 657 1659 309 407
704 734 1158 960 200 99 330 150 590 229 190 58 434 96 755 119 85 6 343 -4
499 -20z" stroke="white" fill="white"/>
<path d="M3663 6700 c-235 -21 -267 -32 -291 -105 -15 -46 -9 -84 20 -121 40
-50 66 -54 238 -37 186 18 511 12 638 -11 343 -63 526 -196 573 -417 18 -83 6
-276 -24 -384 -65 -235 -211 -525 -409 -815 -103 -152 -131 -190 -140 -190 -5
0 -44 18 -88 40 -95 48 -229 88 -325 98 -81 8 -69 -14 -110 212 -35 193 -104
467 -155 615 -52 150 -153 361 -224 468 -137 208 -317 347 -509 392 -80 19
-244 19 -325 0 -162 -38 -355 -138 -520 -269 -101 -80 -341 -319 -428 -425
-101 -125 -109 -139 -108 -194 0 -44 5 -54 37 -83 30 -28 44 -34 83 -34 25 0
54 5 64 10 11 6 64 63 118 128 373 442 722 663 982 621 136 -21 268 -114 375
-265 101 -141 216 -417 285 -680 28 -107 81 -369 95 -464 l7 -46 -59 -18
c-105 -33 -197 -76 -281 -133 -45 -31 -87 -62 -93 -70 -6 -7 -15 -13 -20 -13
-5 0 -55 33 -111 73 -853 607 -1502 726 -1865 344 -102 -108 -171 -234 -218
-402 -54 -190 -60 -246 -60 -580 0 -316 11 -446 39 -487 42 -59 119 -74 177
-35 59 40 63 60 48 221 -17 176 -17 471 0 596 40 286 128 472 269 567 78 53
143 73 252 80 283 18 737 -175 1202 -510 l97 -70 -33 -66 c-65 -130 -91 -213
-110 -346 l-11 -80 -105 -17 c-558 -93 -979 -242 -1240 -439 -93 -70 -201
-185 -249 -263 -141 -234 -130 -519 31 -813 110 -200 354 -475 603 -678 l110
-90 58 0 c53 0 61 3 87 32 56 63 46 153 -24 204 -67 49 -225 191 -318 285
-450 457 -508 823 -174 1092 167 134 413 243 739 327 294 75 506 112 513 89 2
-8 7 -22 10 -31 4 -10 8 -29 10 -42 5 -43 102 -225 158 -297 l55 -72 -88 -123
c-364 -516 -551 -958 -551 -1304 0 -207 62 -380 184 -512 170 -183 429 -284
806 -314 218 -17 616 4 685 37 95 46 93 171 -3 227 -30 17 -39 18 -144 6 -170
-20 -559 -17 -678 5 -267 49 -422 128 -513 263 -65 96 -81 164 -74 323 6 138
29 239 92 401 84 213 257 515 436 760 l48 65 94 -46 c107 -53 229 -89 327 -97
l68 -6 11 -63 c6 -35 16 -93 22 -129 6 -36 14 -63 19 -60 4 2 5 -6 3 -18 -7
-36 64 -327 124 -507 126 -381 309 -666 515 -802 66 -45 186 -94 259 -108 247
-47 532 50 819 279 176 140 489 473 527 561 30 69 -10 148 -88 172 -61 18
-108 -13 -214 -143 -168 -206 -402 -417 -567 -515 -196 -114 -394 -135 -550
-57 -60 29 -164 126 -227 211 -100 136 -213 400 -284 662 -28 103 -107 486
-107 519 0 15 10 23 40 31 114 31 278 117 383 202 20 16 32 20 42 13 488 -342
804 -508 1125 -592 112 -30 365 -43 462 -24 135 25 277 102 375 203 124 128
200 294 254 551 40 188 37 772 -5 897 -24 73 -120 102 -187 57 -59 -40 -63
-59 -48 -226 17 -181 17 -467 0 -586 -58 -424 -220 -629 -514 -651 -217 -16
-558 102 -912 315 -141 86 -397 261 -393 270 2 3 19 40 39 81 53 108 87 219
99 318 6 47 12 87 13 88 1 0 63 11 137 23 698 116 1197 341 1415 636 225 303
185 663 -117 1071 -87 116 -324 360 -447 459 -41 33 -87 71 -104 84 -21 17
-46 26 -83 29 -50 4 -56 2 -88 -30 -39 -39 -51 -73 -42 -121 9 -43 12 -46 148
-159 512 -427 714 -820 570 -1106 -70 -140 -250 -285 -472 -382 -213 -93 -663
-214 -881 -236 l-64 -6 -18 63 c-28 96 -90 217 -157 308 l-60 82 53 72 c244
331 447 709 531 994 59 196 71 429 32 578 -84 316 -363 522 -798 590 -120 19
-487 28 -625 15z m177 -2200 c137 -22 249 -69 346 -146 178 -143 271 -324 281
-549 7 -134 -15 -232 -78 -364 -35 -71 -58 -101 -133 -176 -99 -97 -183 -151
-293 -185 -475 -147 -954 199 -953 689 0 125 20 216 70 320 140 291 452 459
760 411z" stroke="white" fill="white"/>
</g>
</svg>
