<svg version="1.0" xmlns="http://www.w3.org/2000/svg"
 width="622.000000pt" height="622.000000pt" viewBox="0 0 622.000000 622.000000"
 preserveAspectRatio="xMidYMid meet">
<g transform="translate(0.000000,622.000000) scale(0.100000,-0.100000)"
fill="#000000" stroke-width="400">
<path d="M3045 5374 c-208 -28 -296 -54 -437 -126 -419 -214 -688 -664 -688
-1150 l0 -108 560 0 560 0 0 -1045 c0 -575 -2 -1045 -5 -1045 -3 0 -670 266
-1482 591 -813 325 -1484 592 -1490 593 -10 1 -13 -265 -15 -1257 l-3 -1257
43 0 c42 0 44 -2 60 -41 12 -32 20 -40 36 -36 12 2 675 266 1474 586 798 319
1460 581 1470 581 9 0 679 -265 1488 -589 l1472 -588 18 41 c17 38 22 41 62
44 l42 3 0 1261 c0 1004 -3 1259 -12 1255 -7 -3 -678 -271 -1491 -596 -812
-325 -1479 -591 -1482 -591 -3 0 -5 470 -5 1045 l0 1045 73 0 c39 0 117 3 172
5 55 3 274 8 488 11 l387 6 0 82 c-1 484 -279 948 -692 1157 -93 47 -206 86
-302 104 -77 15 -252 26 -301 19z m325 -213 c171 -45 315 -127 450 -257 139
-134 240 -298 293 -474 25 -82 47 -186 47 -220 0 -16 -43 -18 -512 -27 -282
-5 -747 -10 -1032 -11 l-519 -2 6 67 c23 264 185 559 400 729 86 67 234 149
325 179 156 50 383 57 542 16z m-2255 -2686 c473 -190 1064 -428 1313 -527
248 -100 449 -185 445 -189 -9 -7 -2606 -1049 -2635 -1057 -17 -4 -18 51 -18
1057 0 1004 1 1061 18 1061 9 0 404 -155 877 -345z m4915 -716 c0 -845 -3
-1060 -12 -1056 -378 148 -2626 1051 -2631 1057 -8 7 2602 1058 2631 1060 9 0
12 -219 12 -1061z" stroke="white" fill="white"/>
</g>
</svg>
