<?xml version="1.0" standalone="no"?>
<!DOCTYPE svg PUBLIC "-//W3C//DTD SVG 20010904//EN"
 "http://www.w3.org/TR/2001/REC-SVG-20010904/DTD/svg10.dtd">
<svg version="1.0" xmlns="http://www.w3.org/2000/svg"
 width="791.000000pt" height="792.000000pt" viewBox="0 0 791.000000 792.000000"
 preserveAspectRatio="xMidYMid meet">
<metadata>
Created by potrace 1.16, written by Peter Selinger 2001-2019
</metadata>
<g transform="translate(0.000000,792.000000) scale(0.100000,-0.100000)"
fill="#000000" >
<path d="M1720 6746 l0 -565 -422 -3 c-403 -4 -426 -5 -489 -26 -344 -114
-588 -593 -704 -1377 -42 -289 -50 -418 -50 -845 0 -508 20 -737 96 -1109 125
-616 335 -985 631 -1110 l63 -26 438 -3 437 -3 0 -274 0 -274 140 -3 c77 -2
203 -2 280 0 l140 3 2 272 3 272 1685 0 1685 0 3 -272 2 -273 280 0 280 0 0
275 0 274 448 3 c436 3 449 4 507 25 355 135 591 641 707 1518 21 158 23 208
23 695 0 445 -3 547 -18 670 -71 578 -199 1009 -377 1273 -111 164 -278 283
-430 307 -42 6 -614 10 -1587 10 l-1523 0 0 285 0 285 -280 0 -280 0 0 -285 0
-285 -565 0 -565 0 0 565 0 565 -280 0 -280 0 0 -564z m5301 -1166 c76 -92
173 -339 227 -580 76 -339 106 -642 106 -1075 0 -427 -28 -718 -104 -1062 -53
-244 -154 -500 -231 -587 l-31 -36 -383 0 -383 0 -4 188 c-3 180 -4 189 -30
237 -88 167 -297 205 -436 80 -80 -72 -92 -116 -92 -330 l0 -175 -1690 0
-1690 0 0 183 c0 170 -2 185 -24 232 -66 143 -241 204 -382 132 -58 -30 -93
-65 -125 -127 -22 -42 -24 -58 -27 -232 l-4 -188 -373 0 -373 0 -37 49 c-74
101 -159 316 -209 531 -164 691 -154 1637 24 2305 61 232 171 461 231 483 10
4 1367 7 3014 7 l2997 0 29 -35z" stroke="white" fill="white"/>
</g>
</svg>
